<svg width="16" height="14" viewBox="0 0 16 14" fill="none" xmlns="http://www.w3.org/2000/svg">
<g clip-path="url(#clip0_295_2606)">
<path d="M15.5196 5.38517C15.4488 5.46627 15.39 5.56485 15.3046 5.62605C14.6961 6.06288 14.0822 6.49187 13.4701 6.92388C13.4295 6.95252 13.3904 6.98327 13.3505 7.01342C13.5246 7.20666 13.5089 7.38272 13.3105 7.53466C13.2754 7.56179 13.2384 7.59133 13.2145 7.62751C12.9637 8.01339 12.7153 8.40078 12.4731 8.80084C12.9622 8.50871 13.481 8.40078 14.0316 8.55001C14.578 8.69803 14.989 9.02905 15.2546 9.52859C15.7241 10.4119 15.4651 11.521 14.661 12.0911C13.9556 12.5912 12.7453 12.6452 11.9349 11.5647C11.9624 11.6561 11.9763 11.7073 11.9936 11.7574C12.1983 12.3546 12.4037 12.9515 12.6084 13.5484C12.6263 13.6006 12.659 13.6551 12.6542 13.7058C12.6457 13.7929 12.6381 13.9084 12.5824 13.9545C12.5348 13.9937 12.4013 13.981 12.3377 13.9409C12.0187 13.7401 11.7098 13.5234 11.3985 13.3108C10.2812 12.549 9.1645 11.7863 8.0469 11.0248C7.8458 10.8876 7.77886 10.8903 7.56958 11.0308C6.16305 11.975 4.75652 12.9195 3.34908 13.8628C3.23096 13.9418 3.10679 14.0702 2.95777 13.9524C2.81088 13.8363 2.90417 13.6841 2.94929 13.5499C3.09285 13.1227 3.24096 12.6967 3.39784 12.2403C3.08074 12.1402 2.76909 12.0368 2.4541 11.9437C1.80444 11.7516 1.15145 11.5701 0.503615 11.3724C0.369444 11.3314 0.239815 11.2512 0.128965 11.1632C0.000547476 11.061 -0.0164133 10.9054 0.013268 10.7492C0.0702077 10.4508 0.124119 10.1514 0.191053 9.85508C0.340671 9.19425 0.877963 8.52288 1.67694 8.487C2.54163 8.44842 3.19825 8.93348 3.37301 9.73419C3.41874 9.94431 3.40027 10.1683 3.41269 10.4125C3.56624 10.4559 3.76189 10.5114 3.96966 10.5702C4.01994 10.424 4.07506 10.2642 4.12413 10.1219C3.69738 9.62958 3.28033 9.14843 2.86298 8.66789C2.55677 8.31517 2.24936 7.96335 1.94316 7.61063C1.74811 7.38603 1.77749 7.17108 2.02463 7.00739C2.04856 6.99141 2.07339 6.97664 2.11761 6.9486C1.88925 6.78641 1.67421 6.63326 1.45826 6.48072C1.04757 6.1907 0.636575 5.90159 0.225883 5.61128C0.189236 5.58535 0.15168 5.55822 0.12109 5.52566C-0.00217837 5.39422 0.0426464 5.23594 0.217706 5.19675C0.290394 5.18047 0.367626 5.17987 0.442738 5.17987C2.13578 5.17897 3.82913 5.17927 5.52218 5.17927C5.79143 5.17927 5.83777 5.14822 5.92863 4.89317C6.47561 3.35416 7.01957 1.81425 7.57231 0.277353C7.60956 0.173647 7.7089 0.0919486 7.77917 0C7.79946 0 7.81945 0 7.83974 0C7.91152 0.0964706 8.01329 0.182691 8.05084 0.290919C8.58844 1.83686 9.11695 3.38612 9.64848 4.93417C9.71633 5.13133 9.78296 5.17836 9.99103 5.17927C10.273 5.18017 10.555 5.17927 10.8369 5.17927C12.2771 5.17927 13.7169 5.17957 15.1571 5.17897C15.3082 5.17897 15.4509 5.19012 15.5196 5.35503V5.38517ZM9.30018 6.17412C9.29958 5.18138 8.51878 4.37193 7.55898 4.36861C6.59343 4.3653 5.80657 5.16058 5.80627 6.14066C5.80566 7.15209 6.5904 7.96576 7.56262 7.96214C8.52605 7.95853 9.30079 7.16114 9.30018 6.17412ZM4.97126 7.29288C4.96611 7.2353 4.96368 7.19581 4.95914 7.15661C4.86798 6.38153 4.13533 5.92872 3.39845 6.191C3.02743 6.32305 2.75879 6.5799 2.52952 6.88619C2.40231 7.05592 2.2742 7.22414 2.02826 7.25128C2.05734 7.28866 2.0746 7.31278 2.09399 7.33508C2.78271 8.13278 3.47235 8.92987 4.16017 9.72846C4.25709 9.84091 4.3746 9.83156 4.47001 9.7574C4.72442 9.55934 4.96641 9.34559 5.18327 9.1635C4.94642 8.91509 4.72442 8.68206 4.49969 8.44631C4.81952 8.22533 5.31138 8.27899 5.51127 8.55966C5.60456 8.6905 5.69996 8.68989 5.80082 8.61031C6.0625 8.40289 6.31479 8.18373 6.56375 7.97511C6.47046 7.9118 6.379 7.8711 6.31691 7.80357C5.9571 7.41256 5.52763 7.20817 4.97126 7.29288ZM13.5637 12.1848C14.4908 12.1848 15.2389 11.4164 15.2377 10.4656C15.2364 9.51592 14.4726 8.73783 13.5461 8.74205C12.6193 8.74627 11.8722 9.50809 11.874 10.4469C11.8758 11.4143 12.6251 12.1854 13.5637 12.1851V12.1848ZM11.0441 5.54073C10.9617 5.64564 10.899 5.74573 10.8173 5.82653C10.531 6.1087 10.2394 6.38515 9.94772 6.6616C9.64152 6.95161 9.33986 7.24706 9.02154 7.5235C8.9222 7.61003 8.90554 7.67876 8.98853 7.75443C9.19721 7.94496 9.41679 8.12373 9.61335 8.29105C9.93046 7.80206 10.3832 7.46592 10.7518 7.0517C10.7434 7.12737 10.7225 7.1937 10.6985 7.25851C10.5492 7.66218 10.3969 8.06495 10.2518 8.47042C10.2339 8.52017 10.2524 8.58287 10.2539 8.63985C10.3096 8.6302 10.3723 8.63412 10.4196 8.6088C10.5435 8.54248 10.6604 8.46349 10.7803 8.38993C11.0862 8.20151 11.3921 8.01279 11.6977 7.82437C11.7065 7.83342 11.7153 7.84246 11.7241 7.8512C11.4418 8.26181 11.1674 8.67784 10.8724 9.07909C10.7955 9.18401 10.7994 9.24641 10.8815 9.31726C11.0968 9.50326 11.3167 9.68415 11.5254 9.8593C11.552 9.77851 11.5638 9.69982 11.6014 9.63621C12.0281 8.9163 12.4567 8.19759 12.891 7.4822C12.9449 7.39327 13.0355 7.32634 13.116 7.24223C12.9964 7.14425 12.8616 7.03271 12.7253 6.92237C12.4291 6.6827 12.275 6.67667 11.9542 6.89132C11.7692 7.01492 11.5844 7.13913 11.3997 7.26303C11.4699 6.99985 11.5647 6.75928 11.662 6.51991C11.7389 6.33058 11.7238 6.14247 11.5841 6.00047C11.4136 5.82713 11.2137 5.68272 11.0447 5.54103L11.0441 5.54073ZM2.99503 10.6681C3.02622 10.5795 3.04712 10.5234 3.06529 10.4665C3.23702 9.93195 3.05227 9.33956 2.6125 9.01217C2.16092 8.67603 1.54155 8.64437 1.09845 8.94765C0.682309 9.23224 0.483323 9.65068 0.403062 10.133C0.366112 10.3549 0.355209 10.5825 0.297966 10.7987C0.264953 10.9232 0.301298 10.9784 0.394279 11.0269C0.447281 11.0546 0.504524 11.0769 0.562069 11.0935C1.23353 11.2871 1.90772 11.4719 2.57646 11.6745C2.88993 11.7694 3.23187 11.795 3.50506 12.0278C3.55322 11.8611 3.60077 11.704 3.64408 11.5457C3.69405 11.3624 3.74312 11.1788 3.78764 10.9943C3.81611 10.8765 3.78279 10.8171 3.64226 10.8005C3.42965 10.7752 3.22097 10.7161 2.99503 10.6678V10.6681ZM11.4315 10.1186C11.4908 10.2877 11.5432 10.4375 11.5956 10.5874C11.6017 10.5849 11.6074 10.5822 11.6135 10.5798C11.6214 10.4366 11.6296 10.2934 11.6377 10.1433C11.5763 10.136 11.5145 10.1285 11.4312 10.1186H11.4315Z" fill="black"/>
<path d="M9.29994 6.17413C9.30055 7.16114 8.5255 7.95853 7.56238 7.96215C6.59016 7.96576 5.80542 7.1521 5.80603 6.14066C5.80664 5.16058 6.59319 4.3653 7.55874 4.36862C8.51854 4.37193 9.29934 5.18168 9.29994 6.17413ZM8.26867 6.1693C8.26655 5.72946 7.95702 5.39301 7.5545 5.39241C7.14381 5.39181 6.83306 5.72403 6.83609 6.16056C6.83912 6.5998 7.15017 6.93654 7.55208 6.93534C7.97065 6.93413 8.27109 6.61307 8.26867 6.1696V6.1693Z" fill="white"/>
<path d="M4.9707 7.29288C5.52707 7.20816 5.95654 7.41226 6.31635 7.80357C6.37844 7.8711 6.46991 7.9118 6.56319 7.97511C6.31423 8.18372 6.06194 8.40289 5.80026 8.6103C5.69971 8.69019 5.604 8.6905 5.51072 8.55966C5.31082 8.27899 4.81896 8.22533 4.49913 8.4463C4.72386 8.68205 4.94587 8.91509 5.18271 9.1635C4.96555 9.34589 4.72356 9.55964 4.46945 9.7574C4.37435 9.83156 4.25684 9.84091 4.15961 9.72846C3.4718 8.92986 2.78216 8.13277 2.09343 7.33508C2.07405 7.31277 2.05709 7.28866 2.02771 7.25127C2.27364 7.22384 2.40175 7.05592 2.52896 6.88619C2.75823 6.5799 3.02718 6.32274 3.3979 6.191C4.13478 5.92872 4.86742 6.38153 4.95859 7.15661C4.96313 7.1958 4.96555 7.2356 4.9707 7.29288ZM3.21072 7.10747C3.45332 7.37669 3.68381 7.63233 3.92186 7.89672C4.06421 7.75383 4.28349 7.65133 4.22322 7.42462C4.15992 7.18736 4.00788 6.97513 3.76407 6.8871C3.54115 6.80661 3.37609 6.95101 3.21072 7.10747Z" fill="white"/>
<path d="M13.5631 12.1845C12.6245 12.1845 11.8752 11.4137 11.8734 10.4463C11.8716 9.50748 12.6191 8.74596 13.5456 8.74144C14.4723 8.73722 15.2359 9.51532 15.2371 10.465C15.2383 11.4158 14.4902 12.1842 13.5631 12.1842V12.1845ZM13.5531 11.2039C13.9447 11.2063 14.241 10.8973 14.2431 10.4839C14.2452 10.0556 13.9432 9.72062 13.5553 9.72092C13.1667 9.72092 12.8671 10.0351 12.865 10.4448C12.8626 10.8762 13.1573 11.2014 13.5531 11.2039Z" fill="white"/>
<path d="M11.0436 5.54043C11.2126 5.68212 11.4128 5.82623 11.583 5.99987C11.7226 6.14187 11.7375 6.32998 11.6608 6.51931C11.5636 6.75898 11.4688 6.99925 11.3985 7.26243C11.5833 7.13853 11.768 7.01462 11.9531 6.89072C12.2738 6.67607 12.428 6.6821 12.7242 6.92177C12.8602 7.03181 12.9953 7.14365 13.1149 7.24163C13.0346 7.32574 12.9441 7.39267 12.8899 7.4816C12.4556 8.19699 12.027 8.9157 11.6003 9.63561C11.5627 9.69922 11.5509 9.7779 11.5242 9.8587C11.3156 9.68354 11.0957 9.50266 10.8803 9.31665C10.7983 9.24581 10.794 9.1831 10.8712 9.07849C11.1662 8.67724 11.4406 8.26121 11.7229 7.8506C11.7141 7.84156 11.7053 7.83251 11.6966 7.82377C11.3907 8.01219 11.0848 8.20091 10.7792 8.38933C10.6595 8.46319 10.5423 8.54218 10.4185 8.6082C10.3712 8.63352 10.3085 8.6296 10.2528 8.63925C10.2513 8.58257 10.2328 8.51987 10.2507 8.46982C10.3957 8.06465 10.5481 7.66188 10.6974 7.25791C10.7213 7.19309 10.7422 7.12677 10.7507 7.0511C10.3824 7.46502 9.92932 7.80146 9.61221 8.29045C9.41595 8.12313 9.19607 7.94466 8.98739 7.75383C8.90471 7.67816 8.92106 7.60943 9.0204 7.5229C9.33872 7.24645 9.64038 6.95131 9.94658 6.661C10.2382 6.38455 10.5299 6.1081 10.8161 5.82592C10.8982 5.74513 10.9609 5.64504 11.043 5.54013L11.0436 5.54043Z" fill="white"/>
<path d="M2.99479 10.6681C3.22073 10.7164 3.42941 10.7755 3.64202 10.8008C3.78256 10.8177 3.81587 10.8768 3.7874 10.9946C3.74288 11.1791 3.69381 11.3627 3.64384 11.546C3.60053 11.7043 3.55298 11.8614 3.50482 12.0281C3.23163 11.795 2.88969 11.7697 2.57622 11.6748C1.90748 11.4719 1.2333 11.2871 0.561832 11.0938C0.504287 11.0772 0.447044 11.0549 0.394042 11.0272C0.301061 10.979 0.264716 10.9238 0.297729 10.799C0.354972 10.5828 0.365875 10.3552 0.402825 10.1333C0.483086 9.65099 0.682072 9.23255 1.09822 8.94796C1.54162 8.64468 2.16068 8.67663 2.61226 9.01247C3.05203 9.33987 3.23678 9.93226 3.06506 10.4668C3.04688 10.5237 3.02568 10.5795 2.99479 10.6685V10.6681ZM2.25548 10.4408C2.32878 10.1499 2.4054 9.87829 2.19824 9.63531C2.05377 9.46588 1.84752 9.4276 1.6449 9.48518C1.34293 9.5708 1.223 9.82524 1.12517 10.1035C1.50376 10.2165 1.86841 10.3254 2.25548 10.4408Z" fill="white"/>
<path d="M8.26835 6.1693C8.27047 6.61276 7.97003 6.93383 7.55176 6.93503C7.14955 6.93624 6.8385 6.5995 6.83578 6.16025C6.83275 5.72372 7.1438 5.3915 7.55418 5.39211C7.957 5.39271 8.26623 5.72915 8.26835 6.169V6.1693Z" fill="black"/>
<path d="M3.21072 7.10747C3.37609 6.95101 3.54116 6.8063 3.76407 6.8871C4.00788 6.97513 4.16022 7.18766 4.22322 7.42462C4.28349 7.65133 4.06421 7.75383 3.92186 7.89672C3.68381 7.63233 3.45332 7.37669 3.21072 7.10747Z" fill="black"/>
<path d="M13.5532 11.2039C13.1573 11.2011 12.8626 10.8762 12.865 10.4447C12.8672 10.035 13.1667 9.72122 13.5553 9.72092C13.9436 9.72092 14.2455 10.0559 14.2431 10.4839C14.241 10.8973 13.9448 11.2063 13.5532 11.2039Z" fill="black"/>
<path d="M2.25546 10.4408C1.8684 10.3254 1.50374 10.2165 1.12515 10.1035C1.22328 9.82523 1.34292 9.57079 1.64488 9.48517C1.8475 9.42759 2.05375 9.46587 2.19822 9.6353C2.40539 9.87829 2.32876 10.1499 2.25546 10.4408Z" fill="black"/>
</g>
<defs>
<clipPath id="clip0_295_2606">
<rect width="15.5194" height="14" fill="white"/>
</clipPath>
</defs>
</svg>
